<svg xmlns="http://www.w3.org/2000/svg" width="752" height="80"><svg width="37" height="32" viewBox="0 0 37 32"><path fill="#afb1b8" d="M15.647 3.335h-.125c-.192-.012-.384-.016-.576-.021h-.416c-.363 0-.733.009-1.101.028a.575.575 0 0 0-.083 0 25.866 25.866 0 0 0-9.615 2.453l-.396.191v20.243l.925-.314c.812-.279 1.677-.53 2.572-.763a31.39 31.39 0 0 1 7.401-.983v2.66c-.331.002-.652.012-.974.028h-.076a29.54 29.54 0 0 0-5.694.874 28.973 28.973 0 0 0-6.784 2.643V4.411a27.19 27.19 0 0 1 7.117-2.895 27.26 27.26 0 0 1 6.707-.865h.391a27.9 27.9 0 0 1 1.351.065c1.127.079 2.246.257 3.342.532v2.618a20.715 20.715 0 0 0-3.238-.488l-.066-.006c-.226-.019-.452-.039-.662-.039zm4.607 2.676c.58.044 1.182.065 1.79.065a28.781 28.781 0 0 0 7.052-.904 29.065 29.065 0 0 0 6.781-2.646v25.5a27.272 27.272 0 0 1-7.119 2.895 27.402 27.402 0 0 1-6.707.863 20.479 20.479 0 0 1-5.088-.6V5.519a20.868 20.868 0 0 0 3.292.493zm12.978.198-.925.312c-.851.286-1.709.542-2.572.77a31.34 31.34 0 0 1-7.686.986 25.87 25.87 0 0 1-1.695-.051l-.738-.049v20.825l.634.056c.588.051 1.194.077 1.804.077a24.585 24.585 0 0 0 6.053-.784 25.42 25.42 0 0 0 4.73-1.7l.396-.191V6.21z"/></svg><svg width="43" height="32" viewBox="0 0 43 32" x="48"><path fill="#afb1b8" d="M3.239 26.373a.98.98 0 0 1 .25.665c.008.158-.022.315-.089.46s-.169.275-.298.38a1.788 1.788 0 0 1-1.125.307H0V23.97h1.937c.382-.023.761.076 1.073.28.125.096.224.217.289.354s.095.286.086.435a.923.923 0 0 1-.225.645 1.06 1.06 0 0 1-.589.329c.262.044.499.172.668.36zM.92 25.737h.828a.835.835 0 0 0 .526-.14c.062-.052.111-.116.141-.187s.043-.148.036-.225c.006-.076-.007-.153-.037-.224s-.078-.135-.138-.188a.858.858 0 0 0-.542-.142H.92v1.106zm1.435 1.616c.066-.053.119-.119.153-.193s.049-.155.043-.235c.005-.081-.01-.163-.045-.238s-.088-.142-.155-.195a.907.907 0 0 0-.562-.152H.921v1.159H1.8a.93.93 0 0 0 .556-.146zM7.197 28.185 6.12 26.538h-.405v1.647h-.927V23.97h1.754c.442-.028.879.1 1.221.358.245.229.393.53.417.85s-.078.637-.287.894a1.46 1.46 0 0 1-.837.428l1.147 1.684H7.195zm-1.482-2.222h.758c.526 0 .789-.213.789-.638a.586.586 0 0 0-.193-.473.87.87 0 0 0-.596-.171h-.767l.009 1.283zM12.262 27.337h-1.847l-.326.848h-.972l1.696-4.168h1.05l1.689 4.168h-.972l-.319-.848zm-.247-.639-.675-1.779-.675 1.779h1.349zM18.602 28.185h-.92l-2.062-2.867v2.867h-.918V23.97h.918l2.062 2.883V23.97h.92v4.215zM23.852 27.176c-.19.318-.48.577-.832.743-.4.185-.845.276-1.293.266H20.09V23.97h1.637c.448-.011.891.078 1.293.259.352.163.642.419.832.735.189.343.288.722.288 1.106s-.099.763-.288 1.106zm-1.053-.101c.263-.28.407-.637.407-1.006s-.144-.726-.407-1.006a1.692 1.692 0 0 0-1.152-.358h-.639v2.729h.639a1.7 1.7 0 0 0 1.152-.358zM12.838.522s11.873 4.104 11.621 10.043V20.61s-11.864-4.106-11.617-10.045L12.837.522zM35.037 18.259c2.242-1.413 4.836-2.288 7.544-2.545v-3.145c-3.12 1.101-5.766 3.097-7.544 5.69z"/><path fill="#afb1b8" d="M33.69 19.206c1.835-3.384 5.017-5.995 8.891-7.296V2.849S25.672 8.695 26.03 17.153v14.302s.753-.262 1.939-.752c0-.457 0-.918.054-1.382.35-3.926 2.389-7.565 5.668-10.115z"/><path fill="#afb1b8" d="M32.081 24.52a13.62 13.62 0 0 1 .592-2.928c-2.042 2.203-3.278 4.936-3.536 7.815-.025.272-.038.544-.045.824a50.77 50.77 0 0 0 3.252-1.569 13.564 13.564 0 0 1-.263-4.141zM32.754 24.571a12.973 12.973 0 0 0 .209 3.75c4.62-2.531 9.811-6.442 9.611-11.168v-.412c-3.301.338-6.389 1.659-8.79 3.76a13.125 13.125 0 0 0-1.03 4.069z"/></svg><svg width="31" height="32" viewBox="0 0 31 32" x="144"><path d="M30.84 15.301C30.838 6.849 23.985-.002 15.532 0S.229 6.855.231 15.308A15.304 15.304 0 0 0 10.88 29.884a.662.662 0 0 0 .529-.065.637.637 0 0 0 .283-.356l3.865-12.25a1.912 1.912 0 1 0-.84-3.635L9.611 8.471a.637.637 0 0 0-.902.902l5.103 5.109a1.876 1.876 0 0 0 .536 2.309l-3.683 11.673C3.387 25.783-.339 17.71 2.342 10.432S13.096-.572 20.374 2.109s11.004 10.754 8.323 18.032a14.042 14.042 0 0 1-7.462 7.973l-.398-1.874a.638.638 0 0 0-1.048-.344l-3.837 3.426a.637.637 0 0 0 .231 1.084l4.899 1.563a.638.638 0 0 0 .819-.74l-.391-1.839a15.255 15.255 0 0 0 9.329-14.089zm-15.305-.637a.638.638 0 1 1 0 1.277.638.638 0 0 1 0-1.277zm2.1 14.864 2.184-1.948.603 2.84-2.787-.892z"/></svg><svg width="67" height="32" viewBox="0 0 67 32" x="192"><path fill="#afb1b8" d="M33.724 15.224a2.095 2.095 0 0 1-.43-1.414v-2.05c0-.628.142-1.106.428-1.433s.775-.489 1.469-.488c.652 0 1.115.139 1.389.417.299.355.444.789.411 1.226v.482h-1.167v-.488a2.476 2.476 0 0 0-.034-.478.467.467 0 0 0-.167-.284.681.681 0 0 0-.423-.111.711.711 0 0 0-.444.117.544.544 0 0 0-.193.313 2.398 2.398 0 0 0-.046.507v2.488c-.018.24.033.48.15.699.058.074.139.132.233.169s.198.05.301.039a.632.632 0 0 0 .413-.113.505.505 0 0 0 .174-.302c.027-.165.039-.332.036-.498v-.505h1.167v.461c.033.456-.109.909-.403 1.289-.268.305-.725.457-1.396.457s-1.179-.163-1.466-.501zM38.583 15.245c-.295-.319-.442-.784-.442-1.4v-2.157c0-.609.147-1.07.442-1.383s.788-.469 1.478-.467c.686 0 1.177.156 1.471.467.295.313.444.774.444 1.383v2.157c0 .609-.15 1.076-.449 1.397s-.788.482-1.466.482c-.679 0-1.181-.163-1.478-.48zm2.022-.518c.106-.2.154-.419.14-.638v-2.641a1.17 1.17 0 0 0-.138-.626c-.059-.075-.142-.135-.238-.172s-.203-.05-.308-.037c-.105-.013-.212 0-.308.037s-.18.096-.24.172a1.15 1.15 0 0 0-.14.626v2.653c-.015.219.033.439.14.638.068.067.152.121.246.158a.82.82 0 0 0 .6 0 .732.732 0 0 0 .246-.158v-.012zM43.38 9.901h1.256l.945 3.979.966-3.979h1.222l.123 5.743h-.904l-.097-3.992-.932 3.992h-.725l-.966-4.006-.089 4.006h-.913l.114-5.743zM49.301 9.901h1.957c1.127 0 1.691.544 1.691 1.631 0 1.041-.593 1.561-1.78 1.56h-.667v2.553h-1.208l.007-5.743zm1.672 2.455c.119.013.24.004.355-.028s.22-.084.309-.154a.928.928 0 0 0 .174-.649 1.801 1.801 0 0 0-.058-.521c-.017-.057-.047-.111-.089-.158s-.093-.086-.153-.116a1.262 1.262 0 0 0-.539-.092h-.469v1.716h.469zM54.691 9.901h1.297l1.331 5.743h-1.126l-.263-1.324h-1.157l-.271 1.324h-1.143l1.331-5.743zm1.109 3.754-.452-2.411-.452 2.411h.903zM58.395 9.901h.846l1.619 3.276V9.901h1.003v5.743h-.804l-1.628-3.42v3.42h-1.036l.002-5.743zM64.209 13.455l-1.346-3.546h1.133l.821 2.277.771-2.277h1.109l-1.329 3.546v2.19h-1.16v-2.19zM35.589 18.156v.3h-.986v2.334h-.413v-2.334h-.99v-.3h2.389zM38.679 20.79h-.319a.139.139 0 0 1-.089-.025.133.133 0 0 1-.053-.06l-.285-.626h-1.367l-.285.626a.172.172 0 0 1-.044.071.152.152 0 0 1-.089.025h-.319l1.208-2.634h.42l1.222 2.624zm-2-.978h1.14l-.483-1.072a1.75 1.75 0 0 1-.089-.248c-.017.05-.031.098-.046.14l-.044.11-.478 1.07zM40.762 20.532c.076.003.151.003.227 0a1.72 1.72 0 0 0 .367-.079c.053-.019.106-.042.162-.065v-.592h-.483c-.012.001-.024-.001-.035-.005s-.021-.009-.03-.016a.062.062 0 0 1-.024-.048v-.202h.937v1.01a1.842 1.842 0 0 1-.51.215c-.099.025-.2.043-.302.054a3.775 3.775 0 0 1-.353.017 1.842 1.842 0 0 1-.609-.098 1.485 1.485 0 0 1-.483-.275 1.293 1.293 0 0 1-.312-.417 1.316 1.316 0 0 1-.111-.547 1.352 1.352 0 0 1 .109-.551c.069-.156.176-.298.312-.417.138-.119.302-.212.483-.273.207-.067.426-.1.647-.098.112 0 .225.008.336.023a1.65 1.65 0 0 1 .53.171c.074.041.144.087.21.138l-.116.163c-.009.015-.023.027-.039.036s-.036.014-.055.014a.16.16 0 0 1-.075-.021 1.582 1.582 0 0 1-.118-.063 1.02 1.02 0 0 0-.162-.071 1.508 1.508 0 0 0-.529-.081 1.407 1.407 0 0 0-.466.073 1.026 1.026 0 0 0-.355.209.918.918 0 0 0-.225.328 1.23 1.23 0 0 0 0 .878.938.938 0 0 0 .242.332c.099.09.219.162.353.209.154.046.316.063.478.052zM44.612 20.49h1.319v.3h-1.722v-2.634h.413l-.01 2.334zM47.304 20.79h-.413v-2.634h.413v2.634zM48.84 18.168a.189.189 0 0 1 .063.048l1.766 1.986a.737.737 0 0 1 0-.094v-1.962h.36v2.645h-.208a.19.19 0 0 1-.089-.015.23.23 0 0 1-.065-.05l-1.764-1.984v2.048h-.345v-2.634h.215c.023 0 .046.004.068.012zM54.07 18.156v.29h-1.464v.87h1.186v.279h-1.186v.899h1.464v.29h-1.889v-2.628h1.889zM10.782 1.888l18.343 4.497v15.757l-18.343-4.494V1.889zM9.605.545v17.867l20.694 5.074V5.621L9.605.545z"/><path fill="#afb1b8" d="M20.696 31.781 0 26.702V8.836l20.696 5.076V31.78z"/><path fill="#afb1b8" d="m9.948 1.686 18.104 4.44-7.699 6.649L2.247 8.333l7.702-6.647zM9.605.545 0 8.837l20.696 5.076 9.603-8.292L9.605.545zM21.861 30.776l8.438-7.287-8.438-2.071v9.358z"/></svg><svg width="34" height="32" viewBox="0 0 34 32" x="288"><path fill="#afb1b8" d="M5.643 31.315a.095.095 0 0 1 .064.025l.166.159a1.373 1.373 0 0 1-.467.302c-.21.076-.435.113-.663.108a1.767 1.767 0 0 1-.623-.101 1.37 1.37 0 0 1-.469-.285 1.277 1.277 0 0 1-.303-.44 1.472 1.472 0 0 1-.106-.565 1.31 1.31 0 0 1 .436-1.007c.142-.124.312-.222.499-.287.205-.069.422-.103.642-.101.204-.004.407.027.596.092.165.062.316.148.447.255l-.139.17a.173.173 0 0 1-.035.031.097.097 0 0 1-.056.013.136.136 0 0 1-.06-.018l-.075-.045-.104-.058a1.3 1.3 0 0 0-.139-.056 1.46 1.46 0 0 0-.436-.063 1.328 1.328 0 0 0-.461.076c-.136.048-.26.121-.361.213a.987.987 0 0 0-.235.339 1.155 1.155 0 0 0-.085.448 1.17 1.17 0 0 0 .085.455.994.994 0 0 0 .231.338.938.938 0 0 0 .345.209c.136.049.281.073.428.072.085.001.17-.004.253-.014a1.01 1.01 0 0 0 .548-.233.127.127 0 0 1 .079-.029zM10.441 30.517c.003.192-.035.382-.112.561-.068.163-.174.311-.313.436s-.306.222-.491.286a2.02 2.02 0 0 1-1.263 0 1.454 1.454 0 0 1-.488-.287 1.288 1.288 0 0 1-.316-.44 1.462 1.462 0 0 1 0-1.125c.071-.164.178-.314.316-.442.139-.12.305-.214.488-.276a1.992 1.992 0 0 1 1.263 0c.185.065.351.163.49.287.137.125.243.273.314.435.077.181.115.372.112.565zm-.436 0a1.186 1.186 0 0 0-.079-.451.941.941 0 0 0-.222-.338.971.971 0 0 0-.351-.213 1.456 1.456 0 0 0-.918 0 .971.971 0 0 0-.351.213.897.897 0 0 0-.224.338 1.322 1.322 0 0 0 0 .903.926.926 0 0 0 .575.549 1.5 1.5 0 0 0 .918 0 .98.98 0 0 0 .351-.211.933.933 0 0 0 .222-.338c.056-.145.082-.298.079-.451zM13.715 30.99l.044.101c.017-.036.031-.069.048-.101a.95.95 0 0 1 .054-.099l1.062-1.677c.021-.029.039-.047.06-.052a.283.283 0 0 1 .087-.009h.314v2.727h-.372v-2.09a.737.737 0 0 1 0-.094l-1.068 1.7c-.014.025-.035.047-.062.062s-.059.023-.091.023h-.06c-.032 0-.064-.007-.091-.022s-.049-.037-.062-.062l-1.099-1.711v2.189h-.359v-2.722h.314a.283.283 0 0 1 .087.009c.026.011.046.03.058.052l1.084 1.678a.662.662 0 0 1 .054.097zM17.71 30.855v1.021h-.415v-2.723h.926c.175-.003.349.017.517.059.134.033.259.091.366.17a.713.713 0 0 1 .208.267.825.825 0 0 1 .071.348.771.771 0 0 1-.301.621 1.062 1.062 0 0 1-.368.18 1.757 1.757 0 0 1-.501.063l-.503-.007zm0-.293h.503a1.2 1.2 0 0 0 .322-.041.71.71 0 0 0 .233-.117.526.526 0 0 0 .191-.409c.005-.076-.009-.151-.042-.222s-.082-.134-.145-.186a.889.889 0 0 0-.559-.146h-.503v1.122zM23.294 31.88h-.328a.158.158 0 0 1-.091-.025.17.17 0 0 1-.054-.063l-.282-.659H21.12l-.293.659a.152.152 0 0 1-.145.088h-.328l1.246-2.727h.432l1.263 2.727zm-2.057-1.013h1.172l-.494-1.11a1.746 1.746 0 0 1-.093-.256l-.048.143a1.404 1.404 0 0 1-.046.116l-.49 1.108zM25.089 29.165a.178.178 0 0 1 .062.049l1.818 2.056v-2.117h.372v2.727h-.208a.204.204 0 0 1-.085-.016.221.221 0 0 1-.066-.05l-1.816-2.054a.737.737 0 0 1 0 .094v2.027h-.372v-2.727h.22a.191.191 0 0 1 .075.013zM30.402 30.795v1.083h-.415v-1.083l-1.149-1.642h.372a.15.15 0 0 1 .089.023.23.23 0 0 1 .056.061l.719 1.059a1.064 1.064 0 0 1 .127.242l.054-.117a.975.975 0 0 1 .071-.125l.708-1.067a.295.295 0 0 1 .054-.058.14.14 0 0 1 .089-.027h.376l-1.151 1.65zM13.51 24.576c.181.02.364.036.548.051 2.803-1.089 5.174-2.873 6.817-5.126s2.485-4.878 2.421-7.546l-3.089-2.684c.628 2.84.334 5.776-.849 8.479s-3.208 5.067-5.849 6.827z"/><path fill="#afb1b8" d="m12.407 24.451.083.014c2.822-1.754 4.974-4.203 6.176-7.03s1.402-5.904.571-8.83l-4.4-3.823c1.78 3.142 2.496 6.659 2.066 10.141s-1.989 6.786-4.496 9.528zM27.328 15.106c-.747 2.931-2.563 5.574-5.177 7.537a16.532 16.532 0 0 1-2.459 1.534c2.128-.544 4.085-1.504 5.718-2.809s2.9-2.917 3.703-4.714l-1.784-1.549z"/><path fill="#afb1b8" d="m26.628 14.674-2.541-2.207c-.049 2.517-.872 4.976-2.385 7.123s-3.66 3.902-6.217 5.084h.012c.57 0 1.139-.03 1.706-.088 2.39-.848 4.502-2.196 6.147-3.926s2.771-3.785 3.278-5.985zM12.774 3.17 9.743.533c-2.709.91-5.04 2.509-6.686 4.588S.526 9.663.517 12.187c.01 2.789 1.09 5.495 3.07 7.69s4.745 3.754 7.859 4.43c2.78-2.942 4.407-6.579 4.646-10.38s-.924-7.569-3.319-10.757zM33.63 14.268c-.011-3.309-1.529-6.479-4.221-8.818s-6.342-3.658-10.15-3.668a16.144 16.144 0 0 0-5.146.832L32.67 18.737a10.94 10.94 0 0 0 .96-4.469z"/></svg><svg width="41" height="32" viewBox="0 0 41 32" x="336"><path d="M2.073 31.933h33.168a2.073 2.073 0 0 0 2.073-2.073v-2.764a2.073 2.073 0 0 0-2.073-2.073h-.691V7.791l3.925-3.718A2.086 2.086 0 0 0 40.887.746a2.086 2.086 0 0 0-3.38 2.339L34.55 5.888V4.294a2.073 2.073 0 0 0-2.073-2.073H4.837a2.073 2.073 0 0 0-2.073 2.073v20.73h-.691A2.073 2.073 0 0 0 0 27.097v2.764c0 1.145.928 2.073 2.073 2.073zM39.387 1.529a.69.69 0 1 1 0 1.381.69.69 0 0 1 0-1.381zM4.146 4.293a.69.69 0 0 1 .691-.691h27.64a.69.69 0 0 1 .691.691v2.902l-1.382 1.313V5.675a.69.69 0 0 0-.691-.691H6.219a.69.69 0 0 0-.691.691V22.95a.69.69 0 0 0 .691.691h24.876a.69.69 0 0 0 .691-.691V10.409L33.168 9.1v15.923H4.146V4.293zm6.219 8.983a2.071 2.071 0 0 0-1.064 3.855 2.072 2.072 0 0 0 2.499-.293l2.402 1.205a.69.69 0 0 0 .825-.159l5.106-5.744 5.019 3.761a.69.69 0 0 0 .889-.051l4.362-4.132v10.54H6.909V6.365h23.494v3.449l-4.889 4.63-5.061-3.794a.692.692 0 0 0-.931.093l-5.176 5.824-1.935-.968c.014-.083.023-.167.026-.251a2.073 2.073 0 0 0-2.073-2.073zm.691 2.073a.69.69 0 1 1-1.381 0 .69.69 0 0 1 1.381 0zm4.146 11.056h6.91v.691a.69.69 0 0 1-.691.691h-5.528a.69.69 0 0 1-.691-.691v-.691zm-13.82.691a.69.69 0 0 1 .691-.691H13.82v.691c0 1.145.928 2.073 2.073 2.073h5.528a2.073 2.073 0 0 0 2.073-2.073v-.691h11.747a.69.69 0 0 1 .691.691v2.764a.69.69 0 0 1-.691.691H2.073a.69.69 0 0 1-.691-.691v-2.764z"/></svg><svg width="57" height="32" viewBox="0 0 57 32" x="432"><path fill="#2196f3" d="M12.878 11.255h-.002c-1.279 0-2.316.921-2.316 2.058v.001c0 1.137 1.037 2.058 2.316 2.058h.002c1.279 0 2.316-.921 2.316-2.058v-.001c0-1.137-1.037-2.058-2.316-2.058zM29.971 10.597c-.004-1.579-.711-3.092-1.967-4.208s-2.958-1.745-4.735-1.749c-1.777.003-3.48.631-4.737 1.748s-1.964 2.63-1.968 4.209v8.706s13.405-1.327 13.406-8.704v-.001zM5.867 22.16c.003 1.098.496 2.151 1.369 2.928s2.058 1.215 3.294 1.218c1.236-.003 2.42-.441 3.294-1.218s1.366-1.829 1.37-2.927v-6.057s-9.327.924-9.327 6.056zm4.663 1.085c-.242 0-.478-.064-.678-.183s-.357-.289-.45-.487c-.092-.198-.117-.417-.069-.627s.163-.404.334-.556c.171-.152.388-.255.625-.297s.482-.02.706.062c.223.082.414.221.548.4s.206.388.206.603c.001.143-.031.284-.092.417s-.151.252-.264.353c-.114.101-.248.182-.397.236s-.308.083-.468.083v-.004zM19.956 22.647h-.9v.93h-.469v-2.275h1.481v.38h-1.012v.588h.9v.378zm2.253-.156c0 .224-.04.42-.119.589a.893.893 0 0 1-.847.528c-.189 0-.357-.045-.505-.136s-.262-.22-.344-.387a1.344 1.344 0 0 1-.123-.581v-.112c0-.224.04-.421.12-.591a.895.895 0 0 1 .848-.529c.189 0 .358.046.505.137a.888.888 0 0 1 .342.392c.081.17.122.366.122.589v.102zm-.475-.103c0-.238-.043-.42-.128-.544s-.207-.186-.366-.186a.416.416 0 0 0-.364.184c-.085.122-.129.301-.13.538v.111c0 .232.043.412.128.541s.208.192.369.192a.415.415 0 0 0 .363-.184c.084-.124.127-.304.128-.541v-.111zm1.996.592a.237.237 0 0 0-.094-.203 1.203 1.203 0 0 0-.337-.15 2.418 2.418 0 0 1-.386-.156c-.258-.14-.387-.328-.387-.564 0-.123.034-.232.103-.328a.688.688 0 0 1 .298-.227c.13-.054.276-.081.438-.081.163 0 .307.03.434.089a.662.662 0 0 1 .401.614h-.469c0-.104-.033-.185-.098-.242s-.158-.087-.277-.087a.426.426 0 0 0-.267.073.225.225 0 0 0-.095.191c0 .074.037.136.111.186.075.05.185.097.33.141.267.08.461.18.583.298s.183.267.183.444a.55.55 0 0 1-.223.464c-.149.111-.349.167-.602.167-.175 0-.334-.032-.478-.095-.144-.065-.254-.153-.33-.264s-.113-.241-.113-.388h.47c0 .251.15.377.45.377a.442.442 0 0 0 .261-.067.222.222 0 0 0 .094-.191zm2.501-1.298h-.697v1.895h-.469v-1.895h-.687v-.38h1.853v.38zm1.638.909h-.9v.609h1.056v.377H26.5v-2.275h1.522v.38h-1.053v.542h.9v.367zm1.273.153h-.373v.833H28.3v-2.275h.845c.269 0 .476.06.622.18s.219.289.219.508a.697.697 0 0 1-.102.389.689.689 0 0 1-.305.247l.492.93v.022h-.503l-.427-.833zm-.373-.379h.378c.118 0 .209-.03.273-.089a.321.321 0 0 0 .097-.248.343.343 0 0 0-.092-.253c-.06-.061-.154-.092-.28-.092h-.377v.683zm2.84.41v.802h-.469v-2.275h.887c.171 0 .321.031.45.094a.703.703 0 0 1 .405.659.655.655 0 0 1-.23.528c-.152.128-.363.192-.633.192h-.411zm0-.379h.419c.124 0 .218-.029.283-.088.066-.058.098-.142.098-.25 0-.111-.033-.202-.098-.27s-.156-.104-.272-.106h-.43v.714zm2.966.195h-.9v.609h1.056v.377h-1.525v-2.275h1.522v.38h-1.053v.542h.9v.367zm2.175-.909h-.697v1.895h-.469v-1.895h-.688v-.38h1.853v.38zm1.637.909h-.9v.609h1.056v.377h-1.525v-2.275h1.522v.38h-1.053v.542h.9v.367zm1.274.153h-.373v.833h-.469v-2.275h.845c.269 0 .476.06.622.18s.219.289.219.508a.697.697 0 0 1-.102.389.689.689 0 0 1-.305.247l.492.93v.022h-.503l-.427-.833zm-.374-.379h.378c.118 0 .209-.03.273-.089a.321.321 0 0 0 .097-.248.343.343 0 0 0-.092-.253c-.06-.061-.154-.092-.28-.092h-.377v.683zm2.755.615a.237.237 0 0 0-.094-.203 1.203 1.203 0 0 0-.337-.15 2.418 2.418 0 0 1-.386-.156c-.258-.14-.388-.328-.388-.564 0-.123.034-.232.103-.328a.688.688 0 0 1 .298-.227c.13-.054.276-.081.438-.081.163 0 .307.03.434.089a.675.675 0 0 1 .295.248.646.646 0 0 1 .106.366h-.469c0-.104-.033-.185-.098-.242s-.158-.087-.277-.087a.426.426 0 0 0-.267.073.225.225 0 0 0-.095.191c0 .074.037.136.111.186.075.05.185.097.33.141.267.08.461.18.583.298s.183.267.183.444a.548.548 0 0 1-.223.464c-.149.111-.349.167-.602.167-.175 0-.334-.032-.478-.095a.773.773 0 0 1-.33-.264.678.678 0 0 1-.112-.388h.47c0 .251.15.377.45.377a.442.442 0 0 0 .261-.067.222.222 0 0 0 .094-.191z"/></svg><svg width="32" height="32" viewBox="0 0 32 32" x="528"><path fill="#fff" d="M31.969 9.408c-.075-1.7-.35-2.869-.744-3.882a7.806 7.806 0 0 0-1.851-2.838A7.867 7.867 0 0 0 26.542.844C25.523.45 24.36.175 22.66.1 20.947.019 20.403 0 16.059 0s-4.888.019-6.595.094c-1.7.075-2.869.35-3.882.744a7.803 7.803 0 0 0-2.838 1.85A7.867 7.867 0 0 0 .9 5.52C.506 6.539.231 7.702.156 9.402c-.081 1.713-.1 2.257-.1 6.601s.019 4.888.094 6.595c.075 1.7.35 2.869.744 3.882a7.895 7.895 0 0 0 1.85 2.838 7.867 7.867 0 0 0 2.832 1.844c1.019.394 2.182.669 3.882.744 1.706.075 2.25.094 6.595.094s4.888-.019 6.595-.094c1.7-.075 2.869-.35 3.882-.744a8.184 8.184 0 0 0 4.682-4.682c.394-1.019.669-2.182.744-3.882.075-1.707.094-2.251.094-6.595s-.006-4.888-.081-6.595zm-2.882 13.065c-.069 1.563-.331 2.407-.55 2.969a5.31 5.31 0 0 1-3.038 3.038c-.563.219-1.413.481-2.969.55-1.688.075-2.194.094-6.464.094s-4.782-.019-6.464-.094c-1.563-.069-2.407-.331-2.969-.55a4.926 4.926 0 0 1-1.838-1.194 4.974 4.974 0 0 1-1.194-1.838c-.219-.563-.481-1.413-.55-2.969-.075-1.688-.094-2.194-.094-6.464s.019-4.782.094-6.464c.069-1.563.331-2.407.55-2.969a4.868 4.868 0 0 1 1.2-1.838A4.974 4.974 0 0 1 6.639 3.55c.563-.219 1.413-.481 2.969-.55 1.688-.075 2.194-.094 6.464-.094 4.276 0 4.782.019 6.464.094 1.563.069 2.407.331 2.969.55a4.914 4.914 0 0 1 1.838 1.194 4.974 4.974 0 0 1 1.194 1.838c.219.563.481 1.413.55 2.969.075 1.688.094 2.194.094 6.464s-.019 4.77-.094 6.458z"/><path fill="#fff" d="M16.059 7.783c-4.538 0-8.22 3.682-8.22 8.22s3.682 8.22 8.22 8.22c4.539 0 8.22-3.682 8.22-8.22s-3.682-8.22-8.22-8.22zm0 13.552a5.333 5.333 0 0 1 0-10.664 5.333 5.333 0 0 1 0 10.664zM26.524 7.458a1.919 1.919 0 1 1-3.838 0 1.919 1.919 0 0 1 3.838 0z"/></svg><svg width="32" height="32" viewBox="0 0 32 32" x="576"><path fill="#fff" d="M31.992 32v-.001H32V20.263c0-5.741-1.236-10.164-7.948-10.164-3.227 0-5.392 1.771-6.276 3.449h-.093v-2.913h-6.364v21.364h6.627V21.42c0-2.785.528-5.479 3.977-5.479 3.399 0 3.449 3.179 3.449 5.657v10.401h6.62zM.528 10.636h6.635V32H.528V10.636zM3.843 0C1.722 0 0 1.721 0 3.843s1.721 3.879 3.843 3.879c2.121 0 3.843-1.757 3.843-3.879A3.846 3.846 0 0 0 3.843 0z"/></svg><svg width="43" height="32" viewBox="0 0 43 32" x="624"><path fill="#757575" d="M38.667 0H4C1.794 0 0 1.794 0 4v24c0 2.206 1.794 4 4 4h34.667c2.206 0 4-1.794 4-4V4c0-2.206-1.794-4-4-4zm0 2.667c.181 0 .353.038.511.103L21.334 18.236 3.49 2.77a1.32 1.32 0 0 1 .511-.103h34.667zm0 26.666H4A1.334 1.334 0 0 1 2.667 28V5.587L20.46 21.008a1.335 1.335 0 0 0 1.748 0L40.001 5.587V28c0 .736-.598 1.333-1.333 1.333z"/></svg><svg width="20" height="32" viewBox="0 0 20 32" y="48"><path fill="#757575" d="M17 0H3C1.346 0 0 1.346 0 3v26c0 1.654 1.346 3 3 3h14c1.654 0 3-1.346 3-3V3c0-1.654-1.346-3-3-3zM3 2h14a1 1 0 0 1 1 1v21H2V3a1 1 0 0 1 1-1zm14 28H3a1 1 0 0 1-1-1v-3h16v3a1 1 0 0 1-1 1z"/></svg><svg width="30" height="32" viewBox="0 0 30 32" x="48" y="48"><path d="m29.859 22.098-8.443-8.505.937-4.615c.242.094.499.144.758.146h.006a2.159 2.159 0 1 0-2.008-1.435l-4.96.605L8.058.161a.534.534 0 0 0-.377-.16.532.532 0 0 0-.373.155L5.795 1.66a.534.534 0 0 0 0 .754l.814.826a14.943 14.943 0 0 0 2.519 17.663.513.513 0 0 0 .146.098c-.034.18-.051.364-.052.547v6.187h-6.4a2.67 2.67 0 0 0-2.667 2.667v1.067c0 .295.239.533.533.533h24.533a.533.533 0 0 0 .533-.533v-1.067a2.67 2.67 0 0 0-2.667-2.667h-6.4v-2.742a15.09 15.09 0 0 0 3.049.32 14.854 14.854 0 0 0 7.04-1.783l.818.823a.534.534 0 0 0 .377.16.532.532 0 0 0 .373-.155l1.513-1.504a.534.534 0 0 0 0-.754zM22.366 6.233a1.066 1.066 0 1 1 .752 1.822h-.003a1.067 1.067 0 0 1-.747-1.823h-.002zM21.11 9.738l-.598 2.946-1.175-1.182 1.774-1.763zm-.606-.902-1.92 1.909-1.485-1.493 3.405-.415zM23.09 28.8a1.6 1.6 0 0 1 1.6 1.6v.533H1.223V30.4a1.6 1.6 0 0 1 1.6-1.6H23.09zm-7.467-2.133v1.067H10.29v-1.067h5.333zM10.29 25.6v-4.053c0-1.294 1.196-2.347 2.667-2.347s2.667 1.053 2.667 2.347V25.6h-5.333zm6.4-1.696v-2.357c0-1.882-1.675-3.413-3.733-3.413a3.8 3.8 0 0 0-3.281 1.786A13.87 13.87 0 0 1 7.397 4.033l18.602 18.708a13.818 13.818 0 0 1-9.309 1.163zm11.289-.684L6.922 2.039l.755-.752 7.935 7.98c.004 0 .006.007.01.01l13.115 13.191-.757.752z"/></svg><svg width="32" height="32" viewBox="0 0 32 32" x="96" y="48"><path fill="#fff" d="M32 6.078c-1.19.522-2.458.868-3.78 1.036a6.523 6.523 0 0 0 2.886-3.626 13.11 13.11 0 0 1-4.16 1.588A6.574 6.574 0 0 0 22.154 3c-3.632 0-6.556 2.948-6.556 6.562 0 .52.044 1.02.152 1.496-5.454-.266-10.28-2.88-13.522-6.862a6.605 6.605 0 0 0-.898 3.316 6.57 6.57 0 0 0 2.914 5.452 6.479 6.479 0 0 1-2.964-.808v.072c0 3.188 2.274 5.836 5.256 6.446a6.548 6.548 0 0 1-1.72.216 5.8 5.8 0 0 1-1.242-.112c.85 2.598 3.262 4.508 6.13 4.57a13.182 13.182 0 0 1-8.134 2.798c-.538 0-1.054-.024-1.57-.09A18.469 18.469 0 0 0 10.064 29c12.072 0 18.672-10 18.672-18.668 0-.29-.01-.57-.024-.848A13.087 13.087 0 0 0 32 6.078z"/></svg><svg width="27" height="32" viewBox="0 0 27 32" x="144" y="48"><path fill="#afb1b8" d="m4 .475 4.672 4.423L0 4.893v21.458h22.667v-8.204l4.667 4.418V.476H4.001zm18.462 17.153L9.215 5.088h13.247v12.54zm-4.113 5.584H3.587V8.78H4.63v13.454h13.719v.977zM7.073 29.208l-.545 1.123-.545-1.123h-.457l.796 1.497v.872h.413v-.872l.794-1.497h-.456zm.685 2.37.192-.552h.918l.194.552h.43l-.897-2.37h-.369l-.895 2.37h.428zm.651-1.867.343.983h-.687l.343-.983zm2.171.926a.537.537 0 0 0-.09.301c0 .2.07.362.21.487.141.124.329.186.563.186s.436-.063.605-.19l.133.158h.459l-.348-.412c.137-.187.205-.426.205-.718h-.343a.95.95 0 0 1-.099.435l-.457-.54.161-.117a.894.894 0 0 0 .246-.247.524.524 0 0 0 .075-.273.487.487 0 0 0-.166-.376.598.598 0 0 0-.423-.153.629.629 0 0 0-.456.163.576.576 0 0 0-.169.439.58.58 0 0 0 .054.236c.037.081.101.18.194.296-.176.126-.294.235-.353.327zm1.069.524a.603.603 0 0 1-.374.133c-.118 0-.213-.034-.283-.103s-.106-.157-.106-.267c0-.127.065-.24.195-.339l.05-.036.518.61zm-.424-1.05c-.112-.138-.168-.252-.168-.343 0-.079.023-.145.068-.197s.107-.078.184-.078c.072 0 .131.022.177.067.047.043.07.096.07.158 0 .093-.034.17-.101.23l-.05.041-.181.124zm3.857 1.288c.163-.142.256-.34.28-.592h-.41c-.022.169-.073.29-.155.363s-.203.109-.365.109a.459.459 0 0 1-.404-.202c-.091-.135-.137-.33-.137-.586v-.21c.002-.253.051-.444.146-.575a.483.483 0 0 1 .413-.197c.154 0 .271.038.35.114.08.075.13.197.15.368h.41c-.026-.259-.119-.46-.278-.602s-.37-.213-.632-.213a.955.955 0 0 0-.514.138c-.148.092-.261.224-.34.394s-.119.367-.119.591v.221c.003.218.044.41.122.575s.189.292.332.383a.932.932 0 0 0 .5.133c.27 0 .487-.071.649-.212zm2.42-.332c.08-.176.12-.38.12-.612v-.132a1.423 1.423 0 0 0-.124-.607.897.897 0 0 0-.347-.4c-.149-.093-.32-.14-.513-.14s-.365.047-.514.142a.924.924 0 0 0-.347.405 1.456 1.456 0 0 0-.122.612v.133c.001.227.042.427.124.601a.934.934 0 0 0 .348.402.96.96 0 0 0 .514.14.947.947 0 0 0 .514-.14.908.908 0 0 0 .345-.404zm-.441-1.34c.1.14.15.341.15.604v.124c0 .267-.049.47-.148.609a.483.483 0 0 1-.42.208.492.492 0 0 1-.423-.213c-.101-.142-.151-.343-.151-.604v-.137c.002-.255.053-.452.153-.591.101-.14.24-.21.418-.21.182 0 .323.07.422.21z"/></svg><svg width="29" height="32" viewBox="0 0 29 32" x="192" y="48"><path d="M28.361 13.626a2.04 2.04 0 0 0-1.364-.809 2.04 2.04 0 0 0-1.537.404l-1.437 1.102-2.178 1.626-1.558-.621c2.779-1.247 4.721-4.026 4.721-7.253 0-4.387-3.583-7.956-7.988-7.956S9.032 3.688 9.032 8.075c0 1.59.476 3.069 1.285 4.313l-3.172-.028H7.14c-.01 0-.018.005-.027.005a.576.576 0 0 0-.178.036c-.015.005-.03.009-.044.015l-.022.007-3.71 1.832-.001.001-2.173 1.045a.432.432 0 0 0-.072.04 2.043 2.043 0 0 0 .525 3.654 2.038 2.038 0 0 0 1.582-.147l1.593-.847 2.598-1.342 1.557-.009-6.245 6.215-.002.001-1.536 1.53c-.363.361-.562.84-.562 1.351s.2.991.562 1.353c.373.371.863.557 1.353.557s.98-.186 1.354-.557L5.2 25.598l1.998-1.491 1.034 1.029-2.022 2.013-.002.001-1.536 1.53c-.363.361-.562.84-.562 1.351s.2.991.562 1.353c.373.371.864.557 1.354.557s.981-.186 1.354-.557l3.995-3.978.001-.002 1.159-1.148-.004-.004c.007-.007.018-.01.025-.018l5.928-6.493 3.983.567a.611.611 0 0 0 .301-.038c.02-.007.038-.017.057-.027.022-.011.045-.017.066-.031l3.687-2.448c.013-.009.021-.024.034-.034.015-.012.033-.017.046-.029l1.459-1.367a2.041 2.041 0 0 0 .243-2.71zM2.445 17.769a.814.814 0 0 1-.641.059.819.819 0 0 1-.244-1.446l1.507-.725.515 1.506-1.138.605zm4.013-2.097-1.777.918-.504-1.473 2.326-1.148-.045 1.703zm17.327-7.598a6.661 6.661 0 0 1-.687 2.937L18.3 8.832a2.136 2.136 0 0 0-.905-1.593l1.68-5.577c2.728.868 4.71 3.413 4.71 6.412zm-13.528 0c0-3.712 3.034-6.732 6.764-6.732.29 0 .574.024.855.06l-1.643 5.455c-.022-.001-.043-.007-.066-.007-1.185 0-2.149.961-2.149 2.142s.964 2.142 2.149 2.142c.797 0 1.485-.44 1.857-1.084l4.432 2.014a6.76 6.76 0 0 1-5.436 2.742c-3.73 0-6.764-3.02-6.764-6.732zm6.835.918c0 .506-.415.918-.925.918s-.925-.412-.925-.918.415-.918.925-.918.925.412.925.918zM2.829 26.233a.698.698 0 0 1-.98.001.682.682 0 0 1 0-.968l1.104-1.1.977.973-1.1 1.096zm3.688 4.285a.698.698 0 0 1-.981.001.682.682 0 0 1 0-.968l1.105-1.1.977.973-1.101 1.096zm3.995-3.981-.002.001-2.025 2.02-.977-.973 2.023-2.014v-.001l.002-.001a.598.598 0 0 0 .103-.155c.008-.016.023-.029.03-.046.019-.047.022-.098.029-.148.004-.028.016-.054.016-.083 0-.041-.015-.081-.023-.121-.007-.037-.007-.074-.021-.11a.596.596 0 0 0-.105-.158c-.012-.013-.016-.031-.029-.044h-.001l-.001-.002-1.844-1.836c-.02-.02-.045-.028-.067-.044a.596.596 0 0 0-.1-.066.522.522 0 0 0-.107-.037.587.587 0 0 0-.118-.023.585.585 0 0 0-.11.006.596.596 0 0 0-.119.023.533.533 0 0 0-.108.051c-.023.013-.048.017-.07.033l-2.035 1.519-1.034-1.029 2.753-2.738 5.004 4.921-1.064 1.055zm7.825-8.052c-.018-.002-.034.004-.052.003a.65.65 0 0 0-.233.032.646.646 0 0 0-.206.124c-.015.013-.032.019-.046.034l-5.391 5.905-4.967-4.885 3.251-3.234a.613.613 0 0 0-.436-1.045v-.001l-2.546.015.032-1.845 3.562.031a7.973 7.973 0 0 0 5.716 2.411c.502 0 .991-.052 1.468-.141.046.037.091.074.149.097l2.765 1.102.175.87.204 1.016-3.446-.49zm4.637.205-.359-1.788 1.66-1.239 1.086 1.442-2.387 1.585zm4.308-3.249-.962.901-1.069-1.419.954-.731a.84.84 0 0 1 .623-.164.82.82 0 0 1 .453 1.413z"/></svg><svg width="18" height="32" viewBox="0 0 18 32" x="240" y="48"><path fill="#fff" d="M13.329 5.313h2.921V.225C15.746.156 14.013 0 11.994 0 7.782 0 4.897 2.649 4.897 7.519V12H.249v5.688h4.648V32h5.699V17.689h4.46l.708-5.688h-5.169V8.082c.001-1.644.444-2.769 2.735-2.769z"/></svg></svg>